<svg xmlns="http://www.w3.org/2000/svg" viewBox="0 0 56 28"><defs><style>.cls-1{fill:#400c07;}.cls-2{fill:#d94625;}</style></defs><g id="Layer_2" data-name="Layer 2"><g id="Layer_1-2" data-name="Layer 1"><rect class="cls-1" width="4" height="4"/><rect class="cls-1" x="4" width="4" height="4"/><rect class="cls-1" x="8" width="4" height="4"/><rect class="cls-1" x="12" width="4" height="4"/><rect class="cls-1" x="16" width="4" height="4"/><rect class="cls-1" x="20" width="4" height="4"/><rect class="cls-2" x="24" width="4" height="4"/><rect class="cls-1" x="28" width="4" height="4"/><rect class="cls-1" x="32" width="4" height="4"/><rect class="cls-2" x="36" width="4" height="4"/><rect class="cls-1" x="40" width="4" height="4"/><rect class="cls-1" x="44" width="4" height="4"/><rect class="cls-2" x="48" width="4" height="4"/><rect class="cls-2" x="52" width="4" height="4"/><rect class="cls-1" y="4" width="4" height="4"/><rect class="cls-1" x="4" y="4" width="4" height="4"/><rect class="cls-1" x="8" y="4" width="4" height="4"/><rect class="cls-1" x="12" y="4" width="4" height="4"/><rect class="cls-1" x="16" y="4" width="4" height="4"/><rect class="cls-2" x="20" y="4" width="4" height="4"/><rect class="cls-1" x="24" y="4" width="4" height="4"/><rect class="cls-1" x="28" y="4" width="4" height="4"/><rect class="cls-2" x="32" y="4" width="4" height="4"/><rect class="cls-1" x="36" y="4" width="4" height="4"/><rect class="cls-1" x="40" y="4" width="4" height="4"/><rect class="cls-2" x="44" y="4" width="4" height="4"/><rect class="cls-2" x="48" y="4" width="4" height="4"/><rect class="cls-1" x="52" y="4" width="4" height="4"/><rect class="cls-1" y="8" width="4" height="4"/><rect class="cls-1" x="4" y="8" width="4" height="4"/><rect class="cls-1" x="8" y="8" width="4" height="4"/><rect class="cls-1" x="12" y="8" width="4" height="4"/><rect class="cls-2" x="16" y="8" width="4" height="4"/><rect class="cls-1" x="20" y="8" width="4" height="4"/><rect class="cls-1" x="24" y="8" width="4" height="4"/><rect class="cls-2" x="28" y="8" width="4" height="4"/><rect class="cls-1" x="32" y="8" width="4" height="4"/><rect class="cls-1" x="36" y="8" width="4" height="4"/><rect class="cls-2" x="40" y="8" width="4" height="4"/><rect class="cls-2" x="44" y="8" width="4" height="4"/><rect class="cls-1" x="48" y="8" width="4" height="4"/><rect class="cls-1" x="52" y="8" width="4" height="4"/><rect class="cls-1" y="12" width="4" height="4"/><rect class="cls-1" x="4" y="12" width="4" height="4"/><rect class="cls-1" x="8" y="12" width="4" height="4"/><rect class="cls-2" x="12" y="12" width="4" height="4"/><rect class="cls-1" x="16" y="12" width="4" height="4"/><rect class="cls-1" x="20" y="12" width="4" height="4"/><rect class="cls-2" x="24" y="12" width="4" height="4"/><rect class="cls-1" x="28" y="12" width="4" height="4"/><rect class="cls-1" x="32" y="12" width="4" height="4"/><rect class="cls-2" x="36" y="12" width="4" height="4"/><rect class="cls-2" x="40" y="12" width="4" height="4"/><rect class="cls-1" x="44" y="12" width="4" height="4"/><rect class="cls-1" x="48" y="12" width="4" height="4"/><rect class="cls-1" x="52" y="12" width="4" height="4"/><rect class="cls-1" y="16" width="4" height="4"/><rect class="cls-1" x="4" y="16" width="4" height="4"/><rect class="cls-2" x="8" y="16" width="4" height="4"/><rect class="cls-1" x="12" y="16" width="4" height="4"/><rect class="cls-1" x="16" y="16" width="4" height="4"/><rect class="cls-2" x="20" y="16" width="4" height="4"/><rect class="cls-1" x="24" y="16" width="4" height="4"/><rect class="cls-1" x="28" y="16" width="4" height="4"/><rect class="cls-2" x="32" y="16" width="4" height="4"/><rect class="cls-2" x="36" y="16" width="4" height="4"/><rect class="cls-1" x="40" y="16" width="4" height="4"/><rect class="cls-1" x="44" y="16" width="4" height="4"/><rect class="cls-1" x="48" y="16" width="4" height="4"/><rect class="cls-1" x="52" y="16" width="4" height="4"/><rect class="cls-1" y="20" width="4" height="4"/><rect class="cls-2" x="4" y="20" width="4" height="4"/><rect class="cls-1" x="8" y="20" width="4" height="4"/><rect class="cls-1" x="12" y="20" width="4" height="4"/><rect class="cls-2" x="16" y="20" width="4" height="4"/><rect class="cls-1" x="20" y="20" width="4" height="4"/><rect class="cls-1" x="24" y="20" width="4" height="4"/><rect class="cls-2" x="28" y="20" width="4" height="4"/><rect class="cls-2" x="32" y="20" width="4" height="4"/><rect class="cls-1" x="36" y="20" width="4" height="4"/><rect class="cls-1" x="40" y="20" width="4" height="4"/><rect class="cls-1" x="44" y="20" width="4" height="4"/><rect class="cls-1" x="48" y="20" width="4" height="4"/><rect class="cls-1" x="52" y="20" width="4" height="4"/><rect class="cls-2" y="24" width="4" height="4"/><rect class="cls-1" x="4" y="24" width="4" height="4"/><rect class="cls-1" x="8" y="24" width="4" height="4"/><rect class="cls-2" x="12" y="24" width="4" height="4"/><rect class="cls-1" x="16" y="24" width="4" height="4"/><rect class="cls-1" x="20" y="24" width="4" height="4"/><rect class="cls-2" x="24" y="24" width="4" height="4"/><rect class="cls-2" x="28" y="24" width="4" height="4"/><rect class="cls-1" x="32" y="24" width="4" height="4"/><rect class="cls-1" x="36" y="24" width="4" height="4"/><rect class="cls-1" x="40" y="24" width="4" height="4"/><rect class="cls-1" x="44" y="24" width="4" height="4"/><rect class="cls-1" x="48" y="24" width="4" height="4"/><rect class="cls-1" x="52" y="24" width="4" height="4"/></g></g></svg>